<svg width="133px" height="21px" viewBox="220 4199 133 21" version="1.1" xmlns="http://www.w3.org/2000/svg" xmlns:xlink="http://www.w3.org/1999/xlink">
    <!-- Generator: Sketch 39.1 (31720) - http://www.bohemiancoding.com/sketch -->
    <desc>Created with Sketch.</desc>
    <defs></defs>
    <g id="Logo-Copy" opacity="0.25" stroke="none" stroke-width="1" fill="none" fill-rule="evenodd" transform="translate(220.000000, 4199.000000)">
        <path d="M7.868,20 L12.18,20 L12.18,12.188 L19.712,0.4 L14.812,0.4 L10.052,8.268 L5.376,0.4 L0.336,0.4 L7.868,12.272 L7.868,20 Z M32.24,20.336 C38.288,20.336 42.684,15.772 42.684,10.2 L42.684,10.144 C42.684,4.572 38.344,0.064 32.296,0.064 C26.248,0.064 21.852,4.628 21.852,10.2 L21.852,10.256 C21.852,15.828 26.192,20.336 32.24,20.336 L32.24,20.336 Z M32.296,16.36 C28.824,16.36 26.36,13.56 26.36,10.2 L26.36,10.144 C26.36,6.784 28.768,4.04 32.24,4.04 C35.712,4.04 38.176,6.84 38.176,10.2 L38.176,10.256 C38.176,13.616 35.768,16.36 32.296,16.36 L32.296,16.36 Z M56.696,20.308 C61.96,20.308 65.292,17.396 65.292,11.46 L65.292,0.4 L60.98,0.4 L60.98,11.628 C60.98,14.736 59.384,16.332 56.752,16.332 C54.12,16.332 52.524,14.68 52.524,11.488 L52.524,0.4 L48.212,0.4 L48.212,11.6 C48.212,17.368 51.432,20.308 56.696,20.308 L56.696,20.308 Z M106.18,20 L110.492,20 L110.492,0.4 L106.18,0.4 L106.18,20 Z M117.392,20 L121.704,20 L121.704,12.412 L131.056,12.412 L131.056,8.492 L121.704,8.492 L121.704,4.32 L132.316,4.32 L132.316,0.4 L117.392,0.4 L117.392,20 Z" id="YOU-DIFFUSE" fill="#0D253E"></path>
        <path d="M82.088,12.5099057 L82.088,0.4 L89.732,0.4 C95.892,0.4 100.148,4.628 100.148,10.2 C100.148,15.716 95.892,20 89.732,20 L82.088,20 L82.088,14.7267895 L82.7916667,13.5416667 C83.7916667,11.8333333 88.7916667,11.2916667 91.4166667,11.25 L91.4166667,13.9166667 L95.75,9.58333333 L91.4166667,5.25 L91.4166667,7.91666667 C89.6221509,7.99468909 82.9332862,8.69363639 82.088,12.5099057 Z" id="Combined-Shape" fill="#0D253E"></path>
    </g>
</svg>
